# xmcd
#
# Track frame offsets:
#	150
#	16076
#	39402
#	61847
#
# Disc length: 1159 seconds
#
# Revision: 0
# Processed by: cddbd v1.5.2PL0 Copyright (c) Steve Scherf et al.
# Submitted via: SynApp - FreeCDDB Version: 2.5
#
DISCID=23048504
DTITLE=Mahalia Barnes - M.Barnes+the Soul Mates
DYEAR=2007
DGENRE=Soul
TTITLE0=It's A Shame
TTITLE1=Never Loved A Man
TTITLE2=You Are My Sunshine
TTITLE3=Wasted
EXTD=
EXTT0=
EXTT1=
EXTT2=
EXTT3=
PLAYORDER=
